<svg xmlns="http://www.w3.org/2000/svg" viewBox="0 0 20 20"><defs><style>.cls-1{fill:#80d5ff;}.cls-2{fill:none;stroke:#80d5ff;stroke-linecap:round;stroke-miterlimit:10;stroke-width:1.04px;}</style></defs><title>冻雨</title><g id="图层_1" data-name="图层 1"><path class="cls-1" d="M14.36,14.21a.78.78,0,1,0,.6.93.78.78,0,0,0-.6-.93Zm0,0"/><path class="cls-1" d="M13.36,16.4a1,1,0,1,0,.8,1.24,1,1,0,0,0-.8-1.24Zm0,0"/><line class="cls-2" x1="5.16" y1="16.6" x2="6.11" y2="14.95"/><line class="cls-2" x1="9.2" y1="16.6" x2="10.15" y2="14.95"/><path class="cls-1" d="M19,8.67a4.42,4.42,0,0,0-4.42-4.42h0A5.4,5.4,0,0,0,4.64,5.58,3.74,3.74,0,0,0,4.19,13a1.82,1.82,0,0,0,.48.07H14.73a1.83,1.83,0,0,0,.45-.06A4.41,4.41,0,0,0,19,8.67Z"/></g></svg>