<svg xmlns="http://www.w3.org/2000/svg" viewBox="0 0 20 20"><defs><style>.cls-1{fill:#ffc303;}.cls-2{fill:#80d5ff;}</style></defs><title>多云-晚上</title><g id="图层_1" data-name="图层 1"><path class="cls-1" d="M14.39,7.24a5,5,0,0,1-.62-5l-.43.07a5,5,0,1,0,5.47,7.23c.07-.13.13-.27.19-.41A5,5,0,0,1,14.39,7.24Z"/><path class="cls-2" d="M18.87,13.33a4.39,4.39,0,0,0-4.39-4.39h0a5.37,5.37,0,0,0-9.84,1.33,3.71,3.71,0,0,0-.44,7.38,1.81,1.81,0,0,0,.47.07h10a1.81,1.81,0,0,0,.44-.06A4.38,4.38,0,0,0,18.87,13.33Z"/></g></svg>