<svg xmlns="http://www.w3.org/2000/svg" viewBox="0 0 20 20"><defs><style>.cls-1{fill:#ffc303;}.cls-2{fill:none;stroke:#ffc303;stroke-linecap:round;stroke-miterlimit:10;stroke-width:1px;}.cls-3{fill:#80d5ff;}</style></defs><title>多云-白天</title><g id="图层_1" data-name="图层 1"><circle class="cls-1" cx="13.8" cy="8.24" r="3.47"/><line class="cls-2" x1="13.8" y1="12.66" x2="13.8" y2="13.44"/><line class="cls-2" x1="13.8" y1="3.04" x2="13.8" y2="3.82"/><line class="cls-2" x1="18.22" y1="8.24" x2="19" y2="8.24"/><line class="cls-2" x1="8.6" y1="8.24" x2="9.38" y2="8.24"/><line class="cls-2" x1="16.93" y1="5.12" x2="17.48" y2="4.57"/><line class="cls-2" x1="10.12" y1="11.92" x2="10.68" y2="11.37"/><line class="cls-2" x1="10.68" y1="5.12" x2="10.12" y2="4.57"/><line class="cls-2" x1="17.48" y1="11.92" x2="16.93" y2="11.37"/><path class="cls-3" d="M17.82,12.82a4.13,4.13,0,0,0-4.13-4.13h0A5,5,0,0,0,4.4,9.94,3.49,3.49,0,0,0,4,16.89a1.7,1.7,0,0,0,.45.07h9.4a1.71,1.71,0,0,0,.42-.06A4.12,4.12,0,0,0,17.82,12.82Z"/></g></svg>