<svg xmlns="http://www.w3.org/2000/svg" viewBox="0 0 20 20"><defs><style>.cls-1{fill:#80d5ff;}</style></defs><title>大雪</title><g id="图层_1" data-name="图层 1"><path class="cls-1" d="M19,9.36a4.42,4.42,0,0,0-4.42-4.42h0A5.4,5.4,0,0,0,4.64,6.27a3.74,3.74,0,0,0-.44,7.43,1.82,1.82,0,0,0,.48.07H14.73a1.83,1.83,0,0,0,.45-.06A4.41,4.41,0,0,0,19,9.36Z"/><path class="cls-1" d="M6.93,16H6.28l.32-.56A.34.34,0,1,0,6,15.14l-.32.56-.32-.56a.34.34,0,1,0-.58.34l.32.56H4.47a.34.34,0,0,0,0,.67h.65l-.32.56a.34.34,0,0,0,.58.34L5.7,17,6,17.6a.34.34,0,0,0,.58-.34l-.32-.56h.65a.34.34,0,0,0,0-.67Z"/><path class="cls-1" d="M11.1,16h-.65l.32-.56a.34.34,0,1,0-.58-.34l-.32.56-.32-.56a.34.34,0,1,0-.58.34l.32.56H8.65a.34.34,0,0,0,0,.67h.65L9,17.27a.34.34,0,0,0,.58.34L9.87,17l.32.56a.34.34,0,0,0,.58-.34l-.32-.56h.65a.34.34,0,0,0,0-.67Z"/><path class="cls-1" d="M15.28,16h-.65l.32-.56a.34.34,0,1,0-.58-.34L14,15.7l-.32-.56a.34.34,0,1,0-.58.34l.32.56h-.65a.34.34,0,0,0,0,.67h.65l-.32.56a.34.34,0,0,0,.58.34L14,17l.32.56a.34.34,0,0,0,.58-.34l-.32-.56h.65a.34.34,0,0,0,0-.67Z"/></g></svg>