<svg xmlns="http://www.w3.org/2000/svg" viewBox="0 0 20 20"><defs><style>.cls-1{fill:none;stroke:#80d5ff;stroke-linecap:round;stroke-miterlimit:10;stroke-width:1.04px;}.cls-2{fill:#80d5ff;}</style></defs><title>大雨</title><g id="图层_1" data-name="图层 1"><line class="cls-1" x1="8.08" y1="17.53" x2="8.9" y2="16.12"/><line class="cls-1" x1="5.11" y1="17.53" x2="5.93" y2="16.12"/><line class="cls-1" x1="11.06" y1="17.53" x2="11.87" y2="16.12"/><line class="cls-1" x1="14.03" y1="17.53" x2="14.85" y2="16.12"/><path class="cls-2" d="M19,9.6a4.42,4.42,0,0,0-4.42-4.42h0A5.4,5.4,0,0,0,4.64,6.51a3.74,3.74,0,0,0-.44,7.43,1.82,1.82,0,0,0,.48.07H14.73a1.83,1.83,0,0,0,.45-.06A4.41,4.41,0,0,0,19,9.6Z"/></g></svg>