<svg xmlns="http://www.w3.org/2000/svg" viewBox="0 0 20 20"><defs><style>.cls-1{fill:none;stroke:#80d5ff;stroke-linecap:round;stroke-miterlimit:10;stroke-width:1.04px;}.cls-2{fill:#80d5ff;}</style></defs><title>暴雨</title><g id="图层_1" data-name="图层 1"><line class="cls-1" x1="8.26" y1="15.97" x2="9.07" y2="14.55"/><line class="cls-1" x1="5.11" y1="15.97" x2="5.93" y2="14.55"/><line class="cls-1" x1="11.4" y1="15.97" x2="12.22" y2="14.55"/><line class="cls-1" x1="14.55" y1="15.97" x2="15.37" y2="14.55"/><line class="cls-1" x1="5.48" y1="18.57" x2="6.29" y2="17.16"/><line class="cls-1" x1="8.45" y1="18.57" x2="9.27" y2="17.16"/><line class="cls-1" x1="11.42" y1="18.57" x2="12.24" y2="17.16"/><path class="cls-2" d="M19,8.55a4.42,4.42,0,0,0-4.42-4.42h0A5.4,5.4,0,0,0,4.64,5.47a3.74,3.74,0,0,0-.44,7.43,1.82,1.82,0,0,0,.48.07H14.73a1.83,1.83,0,0,0,.45-.06A4.41,4.41,0,0,0,19,8.55Z"/></g></svg>