<svg xmlns="http://www.w3.org/2000/svg" viewBox="0 0 20 20"><defs><style>.cls-1{fill:#ffc303;}.cls-2{fill:none;stroke:#ffc303;stroke-linecap:round;stroke-miterlimit:10;stroke-width:0.96px;}</style></defs><title>沙尘暴</title><g id="图层_1" data-name="图层 1"><circle class="cls-1" cx="16.01" cy="5.22" r="0.6"/><circle class="cls-1" cx="18.4" cy="7.13" r="0.6"/><circle class="cls-1" cx="15.53" cy="11.91" r="0.6"/><circle class="cls-1" cx="17.92" cy="10.48" r="0.6"/><circle class="cls-1" cx="14.57" cy="14.78" r="0.6"/><circle class="cls-1" cx="17.45" cy="14.31" r="0.6"/><path class="cls-2" d="M12.55,6.68A1.55,1.55,0,0,1,14.1,8.22h0a1.55,1.55,0,0,1-1.55,1.55H1"/><path class="cls-2" d="M11,8.12a1.55,1.55,0,1,1,1.54,1.65"/><path class="cls-2" d="M2.77,12.2H9.84a1.33,1.33,0,0,1,1.33,1.33h0a1.33,1.33,0,0,1-1.33,1.33"/><path class="cls-2" d="M2.77,7.56h5.3A1.33,1.33,0,0,0,9.4,6.23h0A1.33,1.33,0,0,0,8.07,4.91"/></g></svg>