<svg xmlns="http://www.w3.org/2000/svg" viewBox="0 0 20 20"><defs><style>.cls-1{fill:#ffc303;}.cls-2{fill:none;stroke:#ffc303;stroke-linecap:round;stroke-miterlimit:10;stroke-width:1.04px;}.cls-3{fill:#80d5ff;}</style></defs><title>浮尘-白天</title><g id="图层_1" data-name="图层 1"><circle class="cls-1" cx="14.01" cy="5.28" r="2.85"/><line class="cls-2" x1="14.01" y1="8.92" x2="14.01" y2="9.56"/><line class="cls-2" x1="14.01" y1="1" x2="14.01" y2="1.64"/><line class="cls-2" x1="17.65" y1="5.28" x2="18.29" y2="5.28"/><line class="cls-2" x1="9.73" y1="5.28" x2="10.37" y2="5.28"/><line class="cls-2" x1="16.58" y1="2.71" x2="17.04" y2="2.25"/><line class="cls-2" x1="10.98" y1="8.31" x2="11.43" y2="7.86"/><line class="cls-2" x1="11.43" y1="2.71" x2="10.98" y2="2.25"/><line class="cls-2" x1="17.04" y1="8.31" x2="16.58" y2="7.86"/><path class="cls-3" d="M18,10.48a4,4,0,0,0-4-4h0A4.9,4.9,0,0,0,5,7.69a3.39,3.39,0,0,0-.4,6.73,1.65,1.65,0,0,0,.43.06h9.12a1.65,1.65,0,0,0,.4-.05A4,4,0,0,0,18,10.48Z"/><circle class="cls-1" cx="14.66" cy="16.28" r="0.65"/><circle class="cls-1" cx="13.62" cy="18.35" r="0.65"/><circle class="cls-1" cx="10" cy="17.83" r="0.65"/><circle class="cls-1" cx="8.44" cy="16.8" r="0.65"/><circle class="cls-1" cx="12.07" cy="16.28" r="0.65"/><circle class="cls-1" cx="5.33" cy="15.76" r="0.65"/><circle class="cls-1" cx="5.85" cy="17.83" r="0.65"/></g></svg>