<svg xmlns="http://www.w3.org/2000/svg" viewBox="0 0 20 20"><defs><style>.cls-1{fill:#ffc303;}.cls-2{fill:#80d5ff;}</style></defs><title>浮尘-晚上</title><g id="图层_1" data-name="图层 1"><path class="cls-1" d="M13.83,5.32A4.35,4.35,0,0,1,13.28,1l-.38.06a4.35,4.35,0,1,0,4.76,6.29c.06-.12.12-.24.17-.36A4.35,4.35,0,0,1,13.83,5.32Z"/><path class="cls-2" d="M17.73,10.62A3.82,3.82,0,0,0,13.9,6.8h0A4.67,4.67,0,0,0,5.3,8a3.23,3.23,0,0,0-.38,6.43,1.57,1.57,0,0,0,.41.06H14a1.58,1.58,0,0,0,.38-.05A3.81,3.81,0,0,0,17.73,10.62Z"/><circle class="cls-1" cx="14.52" cy="16.41" r="0.62"/><circle class="cls-1" cx="13.53" cy="18.38" r="0.62"/><circle class="cls-1" cx="10.08" cy="17.89" r="0.62"/><circle class="cls-1" cx="8.6" cy="16.91" r="0.62"/><circle class="cls-1" cx="12.05" cy="16.41" r="0.62"/><circle class="cls-1" cx="5.65" cy="15.92" r="0.62"/><circle class="cls-1" cx="6.14" cy="17.89" r="0.62"/></g></svg>