<svg xmlns="http://www.w3.org/2000/svg" viewBox="0 0 20 20"><defs><style>.cls-1{fill:#ffc303;}.cls-2{fill:none;stroke:#ffc303;stroke-linecap:round;stroke-miterlimit:10;stroke-width:1.07px;}.cls-3{fill:#80d5ff;}</style></defs><title>阵雪-白天</title><g id="图层_1" data-name="图层 1"><circle class="cls-1" cx="14.14" cy="5.42" r="2.95"/><line class="cls-2" x1="14.14" y1="9.17" x2="14.14" y2="9.84"/><line class="cls-2" x1="14.14" y1="1" x2="14.14" y2="1.66"/><line class="cls-2" x1="17.89" y1="5.42" x2="18.55" y2="5.42"/><line class="cls-2" x1="9.72" y1="5.42" x2="10.38" y2="5.42"/><line class="cls-2" x1="16.79" y1="2.76" x2="17.26" y2="2.29"/><line class="cls-2" x1="11.01" y1="8.54" x2="11.48" y2="8.07"/><line class="cls-2" x1="11.48" y1="2.76" x2="11.01" y2="2.29"/><line class="cls-2" x1="17.26" y1="8.54" x2="16.79" y2="8.07"/><path class="cls-3" d="M18.27,10.78a4.13,4.13,0,0,0-4.13-4.13h0A5.05,5.05,0,0,0,4.84,7.9a3.49,3.49,0,0,0-.42,6.95,1.7,1.7,0,0,0,.45.07h9.41a1.71,1.71,0,0,0,.42-.06A4.12,4.12,0,0,0,18.27,10.78Z"/><path class="cls-3" d="M6.71,17.22H6l.33-.58a.34.34,0,1,0-.6-.34l-.33.58-.33-.58a.34.34,0,1,0-.6.34l.33.58H4.19a.34.34,0,0,0,0,.69h.67l-.33.58a.34.34,0,0,0,.6.34l.33-.58.33.58a.34.34,0,0,0,.6-.34L6,17.91h.67a.34.34,0,0,0,0-.69Z"/><path class="cls-3" d="M11.26,17.22h-.67l.33-.58a.34.34,0,1,0-.6-.34l-.33.58-.33-.58a.34.34,0,1,0-.6.34l.33.58H8.74a.34.34,0,0,0,0,.69H9.4l-.33.58a.34.34,0,0,0,.6.34l.33-.58.33.58a.34.34,0,0,0,.6-.34l-.33-.58h.67a.34.34,0,0,0,0-.69Z"/><path class="cls-3" d="M15.8,17.22h-.67l.33-.58a.34.34,0,1,0-.6-.34l-.33.58-.33-.58a.34.34,0,1,0-.6.34l.33.58h-.67a.34.34,0,1,0,0,.69h.67l-.33.58a.34.34,0,0,0,.6.34l.33-.58.33.58a.34.34,0,0,0,.6-.34l-.33-.58h.67a.34.34,0,0,0,0-.69Z"/></g></svg>