<svg xmlns="http://www.w3.org/2000/svg" viewBox="0 0 20 20"><defs><style>.cls-1{fill:#ffc303;}.cls-2,.cls-4{fill:none;stroke-linecap:round;stroke-miterlimit:10;stroke-width:1.13px;}.cls-2{stroke:#ffc303;}.cls-3{fill:#80d5ff;}.cls-4{stroke:#80d5ff;}</style></defs><title>阵雨-白天</title><g id="图层_1" data-name="图层 1"><circle class="cls-1" cx="14.35" cy="5.72" r="3.1"/><line class="cls-2" x1="14.35" y1="9.67" x2="14.35" y2="10.37"/><line class="cls-2" x1="14.35" y1="1.07" x2="14.35" y2="1.77"/><line class="cls-2" x1="18.3" y1="5.72" x2="19" y2="5.72"/><line class="cls-2" x1="9.7" y1="5.72" x2="10.4" y2="5.72"/><line class="cls-2" x1="17.15" y1="2.92" x2="17.64" y2="2.43"/><line class="cls-2" x1="11.06" y1="9.01" x2="11.56" y2="8.51"/><line class="cls-2" x1="11.56" y1="2.92" x2="11.06" y2="2.43"/><line class="cls-2" x1="17.64" y1="9.01" x2="17.15" y2="8.51"/><path class="cls-3" d="M18.7,11.36A4.35,4.35,0,0,0,14.35,7h0A5.31,5.31,0,0,0,4.57,8.33a3.68,3.68,0,0,0-.44,7.31,1.79,1.79,0,0,0,.47.07h9.9a1.8,1.8,0,0,0,.44-.06A4.33,4.33,0,0,0,18.7,11.36Z"/><line class="cls-4" x1="7.59" y1="18.93" x2="8.48" y2="17.4"/><line class="cls-4" x1="4.57" y1="18.93" x2="5.46" y2="17.4"/><line class="cls-4" x1="10.62" y1="18.93" x2="11.5" y2="17.4"/><line class="cls-4" x1="13.64" y1="18.93" x2="14.52" y2="17.4"/></g></svg>