<svg xmlns="http://www.w3.org/2000/svg" viewBox="0 0 20 20"><defs><style>.cls-1{fill:#ffc303;}.cls-2{fill:#80d5ff;}.cls-3{fill:none;stroke:#80d5ff;stroke-linecap:round;stroke-miterlimit:10;stroke-width:1.08px;}</style></defs><title>阵雨-晚上</title><g id="图层_1" data-name="图层 1"><path class="cls-1" d="M14.2,5.74A4.77,4.77,0,0,1,13.6,1l-.41.07A4.78,4.78,0,1,0,18.42,8c.07-.13.13-.26.18-.39A4.77,4.77,0,0,1,14.2,5.74Z"/><path class="cls-2" d="M18.48,11.56a4.2,4.2,0,0,0-4.2-4.2h0A5.13,5.13,0,0,0,4.84,8.64a3.55,3.55,0,0,0-.42,7.06,1.73,1.73,0,0,0,.45.07h9.56a1.73,1.73,0,0,0,.42-.06A4.19,4.19,0,0,0,18.48,11.56Z"/><line class="cls-3" x1="7.78" y1="19" x2="8.63" y2="17.53"/><line class="cls-3" x1="4.88" y1="19" x2="5.72" y2="17.53"/><line class="cls-3" x1="10.68" y1="19" x2="11.53" y2="17.53"/><line class="cls-3" x1="13.59" y1="19" x2="14.44" y2="17.53"/></g></svg>