<svg xmlns="http://www.w3.org/2000/svg" viewBox="0 0 20 20"><defs><style>.cls-1{fill:#ffc303;}.cls-2{fill:#80d5ff;}</style></defs><title>阵雪-晚上</title><g id="图层_1" data-name="图层 1"><path class="cls-1" d="M14,5.48A4.51,4.51,0,0,1,13.41,1L13,1.06A4.52,4.52,0,1,0,18,7.6c.06-.12.12-.25.17-.37A4.51,4.51,0,0,1,14,5.48Z"/><path class="cls-2" d="M18,11a4,4,0,0,0-4-4h0a4.85,4.85,0,0,0-8.9,1.2,3.36,3.36,0,0,0-.4,6.67,1.63,1.63,0,0,0,.43.06h9a1.64,1.64,0,0,0,.4-.05A4,4,0,0,0,18,11Z"/><path class="cls-2" d="M6.43,17.3H5.79l.32-.55a.33.33,0,1,0-.57-.33L5.22,17l-.32-.55a.33.33,0,1,0-.57.33l.32.55H4A.33.33,0,0,0,4,18h.64l-.32.55a.33.33,0,1,0,.57.33l.32-.55.32.55a.33.33,0,1,0,.57-.33L5.79,18h.64a.33.33,0,0,0,0-.66Z"/><path class="cls-2" d="M10.78,17.3h-.64l.32-.55a.33.33,0,1,0-.57-.33L9.57,17l-.32-.55a.33.33,0,1,0-.57.33L9,17.3H8.37a.33.33,0,0,0,0,.66H9l-.32.55a.33.33,0,1,0,.57.33l.32-.55.32.55a.33.33,0,0,0,.57-.33L10.14,18h.64a.33.33,0,0,0,0-.66Z"/><path class="cls-2" d="M15.13,17.3h-.64l.32-.55a.33.33,0,1,0-.57-.33l-.32.55-.32-.55a.33.33,0,1,0-.57.33l.32.55h-.64a.33.33,0,0,0,0,.66h.64l-.32.55a.33.33,0,0,0,.57.33l.32-.55.32.55a.33.33,0,0,0,.57-.33L14.49,18h.64a.33.33,0,0,0,0-.66Z"/></g></svg>