<svg xmlns="http://www.w3.org/2000/svg" viewBox="0 0 20 20"><defs><style>.cls-1{fill:#80d5ff;}.cls-2{fill:none;stroke:#80d5ff;stroke-linecap:round;stroke-miterlimit:10;stroke-width:1.04px;}</style></defs><title>雨夹雪</title><g id="图层_1" data-name="图层 1"><path class="cls-1" d="M11.36,16.09h-.65l.32-.56a.34.34,0,1,0-.58-.34l-.32.56-.32-.56a.34.34,0,0,0-.58.34l.32.56H8.91a.34.34,0,0,0,0,.67h.65l-.32.56a.34.34,0,0,0,.58.34l.32-.56.32.56a.34.34,0,1,0,.58-.34l-.32-.56h.65a.34.34,0,1,0,0-.67Z"/><path class="cls-1" d="M19,9.31a4.42,4.42,0,0,0-4.42-4.42h0A5.4,5.4,0,0,0,4.64,6.22a3.74,3.74,0,0,0-.44,7.43,1.82,1.82,0,0,0,.48.07H14.73a1.83,1.83,0,0,0,.45-.06A4.41,4.41,0,0,0,19,9.31Z"/><line class="cls-2" x1="5.16" y1="17.25" x2="6.11" y2="15.6"/><line class="cls-2" x1="13.89" y1="17.25" x2="14.85" y2="15.6"/></g></svg>