<svg xmlns="http://www.w3.org/2000/svg" viewBox="0 0 20 20"><defs><style>.cls-1{fill:#80d5ff;}.cls-2{fill:none;stroke:#ffc303;stroke-linecap:round;stroke-linejoin:round;stroke-width:1.04px;}</style></defs><title>雷阵雨伴有冰雹</title><g id="图层_1" data-name="图层 1"><path class="cls-1" d="M19,8.64a4.42,4.42,0,0,0-4.42-4.42h0A5.4,5.4,0,0,0,4.64,5.55,3.74,3.74,0,0,0,4.19,13a1.82,1.82,0,0,0,.48.07H14.73a1.83,1.83,0,0,0,.45-.06A4.41,4.41,0,0,0,19,8.64Z"/><polyline class="cls-2" points="9.79 13.79 8.59 15.97 10.64 16.31 9.43 18.49"/><path class="cls-1" d="M5.56,15.1a.78.78,0,1,0,.78.78.78.78,0,0,0-.78-.78Zm0,0"/><path class="cls-1" d="M13.91,13.53a.78.78,0,1,0,.78.78.78.78,0,0,0-.78-.78Zm0,0"/><path class="cls-1" d="M13.38,15.88a1,1,0,1,0,1,1,1,1,0,0,0-1-1Zm0,0"/></g></svg>