<svg xmlns="http://www.w3.org/2000/svg" viewBox="0 0 20 20"><defs><style>.cls-1{fill:#80d5ff;}.cls-2,.cls-3{fill:none;stroke-linecap:round;stroke-width:1.04px;}.cls-2{stroke:#ffc303;stroke-linejoin:round;}.cls-3{stroke:#80d5ff;stroke-miterlimit:10;}</style></defs><title>雷阵雨</title><g id="图层_1" data-name="图层 1"><path class="cls-1" d="M19,8.64a4.42,4.42,0,0,0-4.42-4.42h0A5.4,5.4,0,0,0,4.64,5.55,3.74,3.74,0,0,0,4.19,13a1.82,1.82,0,0,0,.48.07H14.73a1.83,1.83,0,0,0,.45-.06A4.41,4.41,0,0,0,19,8.64Z"/><polyline class="cls-2" points="9.79 13.79 8.59 15.97 10.64 16.31 9.43 18.49"/><line class="cls-3" x1="5.16" y1="16.85" x2="5.98" y2="15.43"/><line class="cls-3" x1="13.51" y1="16.85" x2="14.32" y2="15.43"/></g></svg>