<svg xmlns="http://www.w3.org/2000/svg" viewBox="0 0 20 20"><defs><style>.cls-1{fill:#ffc303;}</style></defs><title>雾霾</title><g id="图层_1" data-name="图层 1"><path class="cls-1" d="M4.14,4a.68.68,0,1,0-.68-.68A.68.68,0,0,0,4.14,4Zm0,0"/><path class="cls-1" d="M10,5.6a.68.68,0,1,0-.68-.68A.68.68,0,0,0,10,5.6Zm0,0"/><path class="cls-1" d="M15.85,4a.68.68,0,1,0-.68-.68.68.68,0,0,0,.68.68Zm0,0"/><path class="cls-1" d="M4.14,16a.68.68,0,1,0,.68.68A.68.68,0,0,0,4.14,16Zm0,0"/><path class="cls-1" d="M10,14.4a.68.68,0,1,0,.68.68A.68.68,0,0,0,10,14.4Zm0,0"/><path class="cls-1" d="M15.85,16a.68.68,0,1,0,.68.68.68.68,0,0,0-.68-.68Zm0,0"/><path class="cls-1" d="M19,10a4.18,4.18,0,0,0-1.21-3.1,4.5,4.5,0,0,0-3.21-1.16A5.5,5.5,0,0,0,10,8.6,5.5,5.5,0,0,0,5.42,5.72,4.5,4.5,0,0,0,2.21,6.88,4.18,4.18,0,0,0,1,10a4.23,4.23,0,0,0,1.22,3.14,4.56,4.56,0,0,0,3.25,1.18,4.53,4.53,0,0,0,2.32-.63,5.83,5.83,0,0,0,1.57-1.38,7.84,7.84,0,0,0,.64-.92,7.86,7.86,0,0,0,.64.92,5.83,5.83,0,0,0,1.57,1.38,4.53,4.53,0,0,0,2.32.63,4.56,4.56,0,0,0,3.25-1.18A4.23,4.23,0,0,0,19,10ZM8.2,11.74a3.63,3.63,0,0,1-2.73,1.33,3.38,3.38,0,0,1-2.39-.82A3,3,0,0,1,2.22,10a3,3,0,0,1,.84-2.24,3.33,3.33,0,0,1,2.35-.8A3.75,3.75,0,0,1,8.18,8.23,6.81,6.81,0,0,1,9.34,9.95h0A6.94,6.94,0,0,1,8.2,11.74Zm8.72.52a3.38,3.38,0,0,1-2.39.82,3.63,3.63,0,0,1-2.73-1.33A6.94,6.94,0,0,1,10.66,10a6.81,6.81,0,0,1,1.17-1.73,3.75,3.75,0,0,1,2.76-1.29,3.33,3.33,0,0,1,2.35.8A3,3,0,0,1,17.78,10a3,3,0,0,1-.85,2.27Zm0,0"/></g></svg>